# xmcd
#
# Track frame offsets: 
#        150
#        15431
#        28394
#        42113
#        55911
#        72121
#        82753
#        98508
#        111326
#        126179
#
# Disc length: 1815 seconds
#
# Revision: 0
# Processed by: cddbd v1.5.2PL0 Copyright (c) Steve Scherf et al.
# Submitted via: ExactAudioCopyFreeDBPlugin 1.0
#
DISCID=7607150a
DTITLE=Middleman Burr - I Like the Sound of That
DYEAR=2015
DGENRE=Country
TTITLE0=Be That Way
TTITLE1=Bend In a River
TTITLE2=I Like the Sound of That
TTITLE3=You Can't Make This Up
TTITLE4=I'd Thought You'd Never Leave
TTITLE5=Let's Fall in Love Today
TTITLE6=You Roll By
TTITLE7=Tonight I Do
TTITLE8=Found
TTITLE9=This Song
EXTD=
EXTT0=
EXTT1=
EXTT2=
EXTT3=
EXTT4=
EXTT5=
EXTT6=
EXTT7=
EXTT8=
EXTT9=
PLAYORDER=
